<svg width="60" height="60" fill="none" xmlns="http://www.w3.org/2000/svg"><path fill="#FE3E57" d="M0 0h60v60H0z"/><path d="M24.564 37.248c-.498-.509-.238-.365-1.439-.694-.545-.15-1.024-.437-1.457-.78l-2.6 6.517c-.25.632.22 1.317.885 1.291l3.019-.117 2.076 2.242a.907.907 0 001.514-.29l2.982-7.478a4.087 4.087 0 01-2.023.562 4.109 4.109 0 01-2.957-1.253zm16.367 5.044l-2.599-6.519c-.433.345-.912.632-1.457.781-1.207.33-.942.186-1.44.694a4.11 4.11 0 01-2.956 1.253c-.713 0-1.402-.209-2.023-.562l2.982 7.478a.907.907 0 001.514.29l2.077-2.242 3.018.117c.666.026 1.136-.66.884-1.29zm-6.863-6.37c.875-.91.976-.832 2.222-1.18a2.357 2.357 0 001.631-1.698c.429-1.664.318-1.463 1.487-2.68a2.47 2.47 0 00.597-2.32c-.428-1.663-.429-1.43 0-3.095a2.47 2.47 0 00-.597-2.32c-1.17-1.217-1.058-1.016-1.487-2.68a2.356 2.356 0 00-1.63-1.698c-1.598-.446-1.406-.33-2.576-1.547a2.246 2.246 0 00-2.228-.622c-1.597.445-1.374.446-2.974 0a2.244 2.244 0 00-2.228.622c-1.169 1.217-.977 1.101-2.574 1.547a2.357 2.357 0 00-1.631 1.698c-.428 1.664-.318 1.463-1.487 2.68a2.468 2.468 0 00-.597 2.32c.428 1.662.428 1.43 0 3.095a2.471 2.471 0 00.597 2.32c1.17 1.217 1.058 1.016 1.486 2.68a2.357 2.357 0 001.632 1.698c1.282.358 1.378.301 2.221 1.18a2.24 2.24 0 002.85.341 2.236 2.236 0 012.437 0c.91.59 2.09.449 2.849-.34zm-9.473-9.611c0-3.108 2.42-5.627 5.405-5.627 2.985 0 5.405 2.52 5.405 5.627 0 3.107-2.42 5.626-5.405 5.626-2.985 0-5.405-2.52-5.405-5.626z" fill="#fff"/></svg>