<svg xmlns="http://www.w3.org/2000/svg" width="20" height="20" viewBox="0 0 15 15"><path d="M7.336.23A7.103 7.103 0 00.23 7.336c0 3.93 3.18 7.11 7.106 7.11 3.93 0 7.11-3.18 7.11-7.11A7.104 7.104 0 007.335.23zm0 1.375A5.732 5.732 0 117.34 13.07a5.732 5.732 0 01-.004-11.465m4.02 3.735l-.649-.652a.337.337 0 00-.484 0L6.172 8.703 4.457 6.977a.342.342 0 00-.488 0l-.649.644a.353.353 0 00-.004.488l2.606 2.621a.342.342 0 00.488 0l4.942-4.906a.34.34 0 00.003-.484zm0 0" fill="#8d8d8d" id="surface1"/></svg>