<svg xmlns="http://www.w3.org/2000/svg" width="37pt" height="40" viewBox="0 0 37 30"><path d="M18.5 23.438c-4.387 0-7.934-3.442-8.262-7.801l-6.062-4.75c-.801 1.015-1.531 2.086-2.125 3.258a1.906 1.906 0 000 1.71c3.136 6.2 9.344 10.395 16.449 10.395 1.555 0 3.055-.234 4.504-.613l-3-2.352c-.496.098-1 .149-1.504.152zm18.145 3.406l-6.395-5.008a19.416 19.416 0 004.7-5.98 1.915 1.915 0 000-1.711C31.811 7.945 25.604 3.75 18.5 3.75a17.621 17.621 0 00-8.516 2.207L2.63.199a.917.917 0 00-1.3.164L.194 1.843a.944.944 0 00.16 1.313L34.37 29.801a.917.917 0 001.3-.164l1.134-1.48a.95.95 0 00-.16-1.317zm-10.625-8.32l-2.27-1.782a5.63 5.63 0 00.3-1.742 5.572 5.572 0 00-2.163-4.492 5.423 5.423 0 00-4.852-.91c.352.476.54 1.058.54 1.652-.009.2-.04.395-.09.586L13.23 8.504a8.142 8.142 0 015.27-1.941c2.207 0 4.328.886 5.887 2.468A8.477 8.477 0 0126.824 15c0 1.266-.304 2.45-.804 3.523zm0 0" id="surface1"/></svg>