<svg xmlns="http://www.w3.org/2000/svg" width="44" height="40" viewBox="0 0 33 30"><path d="M32.8 14.145C29.696 7.945 23.544 3.75 16.5 3.75 9.457 3.75 3.305 7.95.2 14.145a1.936 1.936 0 000 1.71c3.105 6.2 9.257 10.395 16.3 10.395 7.043 0 13.195-4.2 16.3-10.395a1.936 1.936 0 000-1.71zm-16.3 9.293c-4.555 0-8.25-3.778-8.25-8.438s3.695-8.438 8.25-8.438S24.75 10.34 24.75 15c.004 4.66-3.691 8.441-8.25 8.438zm0-14.063a5.34 5.34 0 00-1.45.223 2.856 2.856 0 01-.269 3.644 2.69 2.69 0 01-3.562.274c-.617 2.324.281 4.789 2.238 6.132a5.389 5.389 0 006.395-.207c1.867-1.464 2.613-3.984 1.855-6.261-.758-2.282-2.852-3.809-5.207-3.805zm0 0" id="surface1"/></svg>