<svg width="31" height="35" fill="none" xmlns="http://www.w3.org/2000/svg"><g clip-path="url(#clip0)"><path d="M15.508 9.64c-4.402 0-7.953 3.505-7.953 7.852 0 4.348 3.55 7.856 7.953 7.856 4.398 0 7.949-3.508 7.949-7.856s-3.55-7.851-7.95-7.851zm0 12.962c-2.844 0-5.168-2.293-5.168-5.11 0-2.816 2.316-5.105 5.168-5.105 2.851 0 5.168 2.289 5.168 5.105 0 2.817-2.324 5.11-5.168 5.11zM25.637 9.316c0 1.02-.828 1.832-1.856 1.832a1.836 1.836 0 01-1.851-1.832c0-1.011.828-1.832 1.851-1.832 1.028 0 1.856.82 1.856 1.832zm5.265 1.86c-.117-2.453-.683-4.63-2.504-6.418-1.812-1.793-4.011-2.352-6.496-2.477-2.562-.14-10.234-.14-12.797 0-2.476.117-4.675.68-6.496 2.469C.79 6.543.227 8.715.105 11.172c-.148 2.527-.148 10.11 0 12.637.118 2.457.684 4.628 2.504 6.421 1.82 1.79 4.012 2.348 6.496 2.473 2.563.145 10.235.145 12.797 0 2.485-.117 4.684-.676 6.496-2.473 1.813-1.793 2.38-3.964 2.504-6.421.145-2.528.145-10.102 0-12.633zm-3.308 15.347a5.207 5.207 0 01-2.946 2.915c-2.043.796-6.886.613-9.14.613-2.258 0-7.106.18-9.14-.613a5.214 5.214 0 01-2.95-2.915c-.809-2.015-.621-6.8-.621-9.03 0-2.227-.18-7.02.621-9.032a5.207 5.207 0 012.95-2.91c2.038-.801 6.882-.614 9.14-.614 2.254 0 7.105-.18 9.14.614a5.2 5.2 0 012.946 2.91c.812 2.02.625 6.805.625 9.031 0 2.23.187 7.024-.625 9.031z" fill="#3B5038"/></g><defs><clipPath id="clip0"><path fill="#fff" d="M0 0h31v35H0z"/></clipPath></defs></svg>