<svg width="126" height="46" fill="none" xmlns="http://www.w3.org/2000/svg"><g filter="url(#filter0_d)"><path d="M121.763 18.3c-1.202-4.31-6.936-8.358-16.252-11.475-9.317-3.118-21.658-5.118-34.983-5.67-13.326-.552-26.837.377-38.3 2.634-11.464 2.257-20.192 5.706-24.742 9.777-4.55 4.07-4.649 8.52-.28 12.611 4.367 4.092 12.94 7.58 24.302 9.89 11.361 2.31 24.83 3.301 38.178 2.81 13.35-.49 25.778-2.433 35.233-5.507l-7.153-2.281c-7.841 2.55-18.15 4.16-29.22 4.567-11.071.407-22.242-.415-31.664-2.33-9.423-1.916-16.533-4.81-20.156-8.203-3.622-3.393-3.54-7.083.233-10.46 3.774-3.376 11.013-6.236 20.52-8.108 9.507-1.871 20.712-2.642 31.764-2.184 11.052.458 21.287 2.117 29.014 4.702 7.726 2.585 12.481 5.943 13.479 9.517l10.027-.29z" fill="#fff"/><path d="M105.447 7.014c4.647 1.555 8.39 3.34 11.117 5.265 2.623 1.851 4.288 3.821 4.933 5.828l-9.613.278c-.553-1.795-2.014-3.51-4.249-5.088-2.3-1.624-5.44-3.117-9.315-4.414C90.57 6.29 80.315 4.63 69.251 4.171c-11.065-.458-22.287.313-31.811 2.188-9.515 1.873-16.799 4.742-20.614 8.155-1.911 1.71-2.916 3.525-2.957 5.368-.04 1.845.884 3.667 2.72 5.387 3.665 3.433 10.822 6.335 20.253 8.252 9.44 1.92 20.627 2.742 31.71 2.335 11.056-.406 21.358-2.012 29.214-4.557l6.496 2.072c-9.356 2.956-21.525 4.827-34.583 5.307-13.335.49-26.788-.501-38.131-2.807-11.354-2.308-19.88-5.788-24.206-9.84-2.159-2.022-3.186-4.106-3.14-6.163.045-2.058 1.167-4.14 3.418-6.153 4.508-4.035 13.19-7.475 24.646-9.73C43.712 1.732 57.207.804 70.52 1.355c13.313.552 25.635 2.55 34.928 5.66z" stroke="#2967AF" stroke-width=".4"/></g><mask id="path-3-outside-1" maskUnits="userSpaceOnUse" x="20.281" y="13.425" width="88" height="14" fill="#000"><path fill="#fff" d="M20.281 13.425h88v14h-88z"/><path d="M26.414 16.253v9.079c-.27.234-.63.43-1.081.589-.451.158-.999.237-1.643.237-.645 0-1.193-.143-1.644-.43-.51-.311-.765-.75-.765-1.319V15.33c.27-.234.63-.43 1.081-.589.452-.158.996-.237 1.635-.237s1.192.14 1.661.422c.504.322.756.764.756 1.327zm5.511 10.02c-1.524 0-2.74-.47-3.648-1.407-.902-.943-1.353-2.206-1.353-3.788 0-1.582.512-2.833 1.538-3.753.914-.82 2.057-1.23 3.428-1.23 1.218 0 2.23.302 3.032.905.803.598 1.204 1.412 1.204 2.443 0 .715-.223 1.298-.668 1.75-.44.445-1.02.667-1.74.667-.586 0-1.075-.155-1.468-.465a1.867 1.867 0 01-.686-1.23c-.257 0-.386.093-.386.28 0 .428.21.82.633 1.178.486.422 1.09.633 1.81.633.727 0 1.327-.155 1.802-.466.293.451.44 1 .44 1.644 0 .75-.323 1.391-.968 1.924-.738.61-1.728.915-2.97.915zm9.72 0c-1.623 0-2.903-.452-3.84-1.354-.961-.908-1.442-2.15-1.442-3.727 0-1.582.495-2.836 1.486-3.761.914-.862 2.07-1.292 3.471-1.292 1.4 0 2.523.386 3.367 1.16.85.767 1.274 1.714 1.274 2.839 0 1.002-.349 1.757-1.046 2.267-.645.48-1.523.721-2.637.721-.832 0-1.535-.173-2.11-.519-.046.036-.07.1-.07.194 0 .176.232.337.695.483a4.85 4.85 0 001.573.238c.592 0 1.128-.074 1.609-.22.486-.153.876-.331 1.169-.536.14.123.252.351.334.685.087.328.131.63.131.905 0 .27-.026.51-.079.721-.457.387-.925.662-1.406.826-.68.246-1.506.37-2.479.37zm-.114-5.95c.293 0 .44-.112.44-.335 0-.21-.156-.316-.466-.316-.31 0-.49.167-.536.5.164.1.351.15.562.15zm10.855.316c0 .416-.062.79-.185 1.125a4.195 4.195 0 01-.553 1.02h-4.694c-.486-.669-.73-1.384-.73-2.145 0-.422.062-.803.185-1.143.123-.346.305-.697.545-1.055h4.694c.257.375.445.73.562 1.064.117.334.176.712.176 1.134zm5.695-.703c0-.586-.026-.988-.079-1.205-.053-.222-.15-.334-.29-.334a.361.361 0 00-.237.088c.011.106.029.246.052.422.024.176.035.551.035 1.125v.572a10.093 10.093 0 01-.07 1.335l-.017.211c.07.059.149.088.237.088.14 0 .237-.108.29-.325.053-.223.08-.627.08-1.213v-.764zm-3.278 6.073c-.65 0-1.155-.173-1.512-.519-.351-.345-.527-.867-.527-1.564v-7.91c0-.446.445-.82 1.336-1.125.896-.31 1.895-.466 2.997-.466 1.94 0 3.454.469 4.544 1.406 1.172 1.008 1.757 2.51 1.757 4.509 0 1.799-.568 3.193-1.705 4.183-1.13.99-2.686 1.486-4.667 1.486h-2.223zm11.733.105c-.697 0-1.254-.126-1.67-.378-.463-.263-.694-.653-.694-1.169v-4.526c-.346-.486-.519-1.084-.519-1.793 0-.715.173-1.333.519-1.854h1.345c.691 0 1.186.222 1.485.668a2.368 2.368 0 00-.387.623c-.111.253-.167.434-.167.546 0 .105.027.184.08.237.058.052.14.079.245.079.206-.815.595-1.412 1.17-1.793.474-.322 1.06-.484 1.757-.484.867 0 1.547.185 2.04.554.175.469.263 1.043.263 1.723a4.13 4.13 0 01-.404 1.837c-.2.105-.475.196-.827.272-.351.07-.706.106-1.063.106s-.68-.024-.967-.07a5.702 5.702 0 01-.615-.141c-.047.047-.07.114-.07.202 0 .088.055.155.167.202.117.041.31.088.58.14v4.413c-.639.404-1.395.606-2.268.606zm10.899.159c-1.624 0-2.904-.452-3.841-1.354-.961-.908-1.442-2.15-1.442-3.727 0-1.582.495-2.836 1.486-3.761.914-.862 2.071-1.292 3.471-1.292s2.523.386 3.367 1.16c.85.767 1.274 1.714 1.274 2.839 0 1.002-.349 1.757-1.046 2.267-.644.48-1.523.721-2.637.721-.832 0-1.535-.173-2.109-.519-.047.036-.07.1-.07.194 0 .176.231.337.694.483a4.85 4.85 0 001.573.238c.592 0 1.128-.074 1.609-.22.486-.153.876-.331 1.169-.536.14.123.252.351.334.685.088.328.131.63.131.905 0 .27-.026.51-.079.721-.457.387-.925.662-1.406.826-.68.246-1.506.37-2.478.37zm-.115-5.95c.293 0 .44-.112.44-.335 0-.21-.156-.316-.466-.316-.31 0-.49.167-.536.5.164.1.351.15.562.15zm13.72 1.327c0 .421.047.761.14 1.019.094.258.258.46.493.606.006.03.009.085.009.167v.159c0 .832-.252 1.48-.756 1.942-.445.41-.996.615-1.653.615-.445 0-.852-.105-1.221-.316a1.778 1.778 0 01-.791-.914c-.2 0-.3.096-.3.29 0 .164.103.348.308.553-.38.258-.955.387-1.722.387-1.084 0-1.951-.293-2.602-.879-.644-.591-.966-1.415-.966-2.47 0-1.06.342-1.88 1.028-2.46.627-.522 1.438-.783 2.434-.783.34 0 .668.024.985.07.21.042.325.065.343.071a.538.538 0 00.026-.15c0-.152-.129-.254-.387-.307a5.224 5.224 0 00-1.01-.08c-.885 0-1.641.18-2.268.537-.287-.486-.43-1.102-.43-1.846 0-.422.052-.735.157-.94.422-.194.958-.363 1.609-.51a8.997 8.997 0 012.056-.228c1.489 0 2.614.325 3.375.975.762.65 1.143 1.573 1.143 2.769v1.722zm-4.562.43c-.246 0-.369.111-.369.334 0 .211.144.316.431.316.2 0 .346-.046.44-.14.093-.1.14-.27.14-.51h-.642zm19.802-.43c0 .427.047.776.141 1.045.094.27.258.478.492.624.006.03.009.08.009.15v.132c0 .802-.234 1.43-.703 1.88-.469.452-1.075.677-1.82.677-.738 0-1.333-.202-1.784-.606-.533-.469-.8-1.187-.8-2.154v-2.777c0-.392-.128-.589-.386-.589-.1 0-.179.024-.238.07l.159 1.31v1.986c0 .797.131 1.4.395 1.811a2.922 2.922 0 01-1.055.703c-.416.164-.84.246-1.274.246-.703 0-1.248-.17-1.635-.51-.469-.41-.703-1.057-.703-1.942v-3.085c0-.392-.129-.589-.387-.589a.37.37 0 00-.237.07l.158 1.31v2.33c0 .655.088 1.162.264 1.52-.574.591-1.38.887-2.417.887-.615 0-1.134-.155-1.556-.465a1.698 1.698 0 01-.73-1.442v-4.201c-.345-.486-.518-1.084-.518-1.793 0-.715.173-1.333.519-1.854h2.118c.416 0 .77.155 1.064.465-.258.24-.387.44-.387.598 0 .182.102.273.307.273.258-.446.613-.8 1.064-1.064.527-.299 1.145-.448 1.854-.448.54 0 1.011.114 1.415.343.411.228.715.492.914.79a2.543 2.543 0 011.073-.843 3.45 3.45 0 011.388-.29c1.061 0 1.884.328 2.47.984.574.656.861 1.556.861 2.698l-.035 1.75z"/></mask><g filter="url(#filter1_i)" fill="#2967AF"><path d="M26.414 16.253v9.079c-.27.234-.63.43-1.081.589-.451.158-.999.237-1.643.237-.645 0-1.193-.143-1.644-.43-.51-.311-.765-.75-.765-1.319V15.33c.27-.234.63-.43 1.081-.589.452-.158.996-.237 1.635-.237s1.192.14 1.661.422c.504.322.756.764.756 1.327zm5.511 10.02c-1.524 0-2.74-.47-3.648-1.407-.902-.943-1.353-2.206-1.353-3.788 0-1.582.512-2.833 1.538-3.753.914-.82 2.057-1.23 3.428-1.23 1.218 0 2.23.302 3.032.905.803.598 1.204 1.412 1.204 2.443 0 .715-.223 1.298-.668 1.75-.44.445-1.02.667-1.74.667-.586 0-1.075-.155-1.468-.465a1.867 1.867 0 01-.686-1.23c-.257 0-.386.093-.386.28 0 .428.21.82.633 1.178.486.422 1.09.633 1.81.633.727 0 1.327-.155 1.802-.466.293.451.44 1 .44 1.644 0 .75-.323 1.391-.968 1.924-.738.61-1.728.915-2.97.915zm9.72 0c-1.623 0-2.903-.452-3.84-1.354-.961-.908-1.442-2.15-1.442-3.727 0-1.582.495-2.836 1.486-3.761.914-.862 2.07-1.292 3.471-1.292 1.4 0 2.523.386 3.367 1.16.85.767 1.274 1.714 1.274 2.839 0 1.002-.349 1.757-1.046 2.267-.645.48-1.523.721-2.637.721-.832 0-1.535-.173-2.11-.519-.046.036-.07.1-.07.194 0 .176.232.337.695.483a4.85 4.85 0 001.573.238c.592 0 1.128-.074 1.609-.22.486-.153.876-.331 1.169-.536.14.123.252.351.334.685.087.328.131.63.131.905 0 .27-.026.51-.079.721-.457.387-.925.662-1.406.826-.68.246-1.506.37-2.479.37zm-.114-5.95c.293 0 .44-.112.44-.335 0-.21-.156-.316-.466-.316-.31 0-.49.167-.536.5.164.1.351.15.562.15zm10.855.316c0 .416-.062.79-.185 1.125a4.195 4.195 0 01-.553 1.02h-4.694c-.486-.669-.73-1.384-.73-2.145 0-.422.062-.803.185-1.143.123-.346.305-.697.545-1.055h4.694c.257.375.445.73.562 1.064.117.334.176.712.176 1.134zm5.695-.703c0-.586-.026-.988-.079-1.205-.053-.222-.15-.334-.29-.334a.361.361 0 00-.237.088c.011.106.029.246.052.422.024.176.035.551.035 1.125v.572a10.093 10.093 0 01-.07 1.335l-.017.211c.07.059.149.088.237.088.14 0 .237-.108.29-.325.053-.223.08-.627.08-1.213v-.764zm-3.278 6.073c-.65 0-1.155-.173-1.512-.519-.351-.345-.527-.867-.527-1.564v-7.91c0-.446.445-.82 1.336-1.125.896-.31 1.895-.466 2.997-.466 1.94 0 3.454.469 4.544 1.406 1.172 1.008 1.757 2.51 1.757 4.509 0 1.799-.568 3.193-1.705 4.183-1.13.99-2.686 1.486-4.667 1.486h-2.223zm11.733.105c-.697 0-1.254-.126-1.67-.378-.463-.263-.694-.653-.694-1.169v-4.526c-.346-.486-.519-1.084-.519-1.793 0-.715.173-1.333.519-1.854h1.345c.691 0 1.186.222 1.485.668a2.368 2.368 0 00-.387.623c-.111.253-.167.434-.167.546 0 .105.027.184.08.237.058.052.14.079.245.079.206-.815.595-1.412 1.17-1.793.474-.322 1.06-.484 1.757-.484.867 0 1.547.185 2.04.554.175.469.263 1.043.263 1.723a4.13 4.13 0 01-.404 1.837c-.2.105-.475.196-.827.272-.351.07-.706.106-1.063.106s-.68-.024-.967-.07a5.702 5.702 0 01-.615-.141c-.047.047-.07.114-.07.202 0 .088.055.155.167.202.117.041.31.088.58.14v4.413c-.639.404-1.395.606-2.268.606zm10.899.159c-1.624 0-2.904-.452-3.841-1.354-.961-.908-1.442-2.15-1.442-3.727 0-1.582.495-2.836 1.486-3.761.914-.862 2.071-1.292 3.471-1.292s2.523.386 3.367 1.16c.85.767 1.274 1.714 1.274 2.839 0 1.002-.349 1.757-1.046 2.267-.644.48-1.523.721-2.637.721-.832 0-1.535-.173-2.109-.519-.047.036-.07.1-.07.194 0 .176.231.337.694.483a4.85 4.85 0 001.573.238c.592 0 1.128-.074 1.609-.22.486-.153.876-.331 1.169-.536.14.123.252.351.334.685.088.328.131.63.131.905 0 .27-.026.51-.079.721-.457.387-.925.662-1.406.826-.68.246-1.506.37-2.478.37zm-.115-5.95c.293 0 .44-.112.44-.335 0-.21-.156-.316-.466-.316-.31 0-.49.167-.536.5.164.1.351.15.562.15zm13.72 1.327c0 .421.047.761.14 1.019.094.258.258.46.493.606.006.03.009.085.009.167v.159c0 .832-.252 1.48-.756 1.942-.445.41-.996.615-1.653.615-.445 0-.852-.105-1.221-.316a1.778 1.778 0 01-.791-.914c-.2 0-.3.096-.3.29 0 .164.103.348.308.553-.38.258-.955.387-1.722.387-1.084 0-1.951-.293-2.602-.879-.644-.591-.966-1.415-.966-2.47 0-1.06.342-1.88 1.028-2.46.627-.522 1.438-.783 2.434-.783.34 0 .668.024.985.07.21.042.325.065.343.071a.538.538 0 00.026-.15c0-.152-.129-.254-.387-.307a5.224 5.224 0 00-1.01-.08c-.885 0-1.641.18-2.268.537-.287-.486-.43-1.102-.43-1.846 0-.422.052-.735.157-.94.422-.194.958-.363 1.609-.51a8.997 8.997 0 012.056-.228c1.489 0 2.614.325 3.375.975.762.65 1.143 1.573 1.143 2.769v1.722zm-4.562.43c-.246 0-.369.111-.369.334 0 .211.144.316.431.316.2 0 .346-.046.44-.14.093-.1.14-.27.14-.51h-.642zm19.802-.43c0 .427.047.776.141 1.045.094.27.258.478.492.624.006.03.009.08.009.15v.132c0 .802-.234 1.43-.703 1.88-.469.452-1.075.677-1.82.677-.738 0-1.333-.202-1.784-.606-.533-.469-.8-1.187-.8-2.154v-2.777c0-.392-.128-.589-.386-.589-.1 0-.179.024-.238.07l.159 1.31v1.986c0 .797.131 1.4.395 1.811a2.922 2.922 0 01-1.055.703c-.416.164-.84.246-1.274.246-.703 0-1.248-.17-1.635-.51-.469-.41-.703-1.057-.703-1.942v-3.085c0-.392-.129-.589-.387-.589a.37.37 0 00-.237.07l.158 1.31v2.33c0 .655.088 1.162.264 1.52-.574.591-1.38.887-2.417.887-.615 0-1.134-.155-1.556-.465a1.698 1.698 0 01-.73-1.442v-4.201c-.345-.486-.518-1.084-.518-1.793 0-.715.173-1.333.519-1.854h2.118c.416 0 .77.155 1.064.465-.258.24-.387.44-.387.598 0 .182.102.273.307.273.258-.446.613-.8 1.064-1.064.527-.299 1.145-.448 1.854-.448.54 0 1.011.114 1.415.343.411.228.715.492.914.79a2.543 2.543 0 011.073-.843 3.45 3.45 0 011.388-.29c1.061 0 1.884.328 2.47.984.574.656.861 1.556.861 2.698l-.035 1.75z"/></g><path d="M26.414 16.253v9.079c-.27.234-.63.43-1.081.589-.451.158-.999.237-1.643.237-.645 0-1.193-.143-1.644-.43-.51-.311-.765-.75-.765-1.319V15.33c.27-.234.63-.43 1.081-.589.452-.158.996-.237 1.635-.237s1.192.14 1.661.422c.504.322.756.764.756 1.327zm5.511 10.02c-1.524 0-2.74-.47-3.648-1.407-.902-.943-1.353-2.206-1.353-3.788 0-1.582.512-2.833 1.538-3.753.914-.82 2.057-1.23 3.428-1.23 1.218 0 2.23.302 3.032.905.803.598 1.204 1.412 1.204 2.443 0 .715-.223 1.298-.668 1.75-.44.445-1.02.667-1.74.667-.586 0-1.075-.155-1.468-.465a1.867 1.867 0 01-.686-1.23c-.257 0-.386.093-.386.28 0 .428.21.82.633 1.178.486.422 1.09.633 1.81.633.727 0 1.327-.155 1.802-.466.293.451.44 1 .44 1.644 0 .75-.323 1.391-.968 1.924-.738.61-1.728.915-2.97.915zm9.72 0c-1.623 0-2.903-.452-3.84-1.354-.961-.908-1.442-2.15-1.442-3.727 0-1.582.495-2.836 1.486-3.761.914-.862 2.07-1.292 3.471-1.292 1.4 0 2.523.386 3.367 1.16.85.767 1.274 1.714 1.274 2.839 0 1.002-.349 1.757-1.046 2.267-.645.48-1.523.721-2.637.721-.832 0-1.535-.173-2.11-.519-.046.036-.07.1-.07.194 0 .176.232.337.695.483a4.85 4.85 0 001.573.238c.592 0 1.128-.074 1.609-.22.486-.153.876-.331 1.169-.536.14.123.252.351.334.685.087.328.131.63.131.905 0 .27-.026.51-.079.721-.457.387-.925.662-1.406.826-.68.246-1.506.37-2.479.37zm-.114-5.95c.293 0 .44-.112.44-.335 0-.21-.156-.316-.466-.316-.31 0-.49.167-.536.5.164.1.351.15.562.15zm10.855.316c0 .416-.062.79-.185 1.125a4.195 4.195 0 01-.553 1.02h-4.694c-.486-.669-.73-1.384-.73-2.145 0-.422.062-.803.185-1.143.123-.346.305-.697.545-1.055h4.694c.257.375.445.73.562 1.064.117.334.176.712.176 1.134zm5.695-.703c0-.586-.026-.988-.079-1.205-.053-.222-.15-.334-.29-.334a.361.361 0 00-.237.088c.011.106.029.246.052.422.024.176.035.551.035 1.125v.572a10.093 10.093 0 01-.07 1.335l-.017.211c.07.059.149.088.237.088.14 0 .237-.108.29-.325.053-.223.08-.627.08-1.213v-.764zm-3.278 6.073c-.65 0-1.155-.173-1.512-.519-.351-.345-.527-.867-.527-1.564v-7.91c0-.446.445-.82 1.336-1.125.896-.31 1.895-.466 2.997-.466 1.94 0 3.454.469 4.544 1.406 1.172 1.008 1.757 2.51 1.757 4.509 0 1.799-.568 3.193-1.705 4.183-1.13.99-2.686 1.486-4.667 1.486h-2.223zm11.733.105c-.697 0-1.254-.126-1.67-.378-.463-.263-.694-.653-.694-1.169v-4.526c-.346-.486-.519-1.084-.519-1.793 0-.715.173-1.333.519-1.854h1.345c.691 0 1.186.222 1.485.668a2.368 2.368 0 00-.387.623c-.111.253-.167.434-.167.546 0 .105.027.184.08.237.058.052.14.079.245.079.206-.815.595-1.412 1.17-1.793.474-.322 1.06-.484 1.757-.484.867 0 1.547.185 2.04.554.175.469.263 1.043.263 1.723a4.13 4.13 0 01-.404 1.837c-.2.105-.475.196-.827.272-.351.07-.706.106-1.063.106s-.68-.024-.967-.07a5.702 5.702 0 01-.615-.141c-.047.047-.07.114-.07.202 0 .088.055.155.167.202.117.041.31.088.58.14v4.413c-.639.404-1.395.606-2.268.606zm10.899.159c-1.624 0-2.904-.452-3.841-1.354-.961-.908-1.442-2.15-1.442-3.727 0-1.582.495-2.836 1.486-3.761.914-.862 2.071-1.292 3.471-1.292s2.523.386 3.367 1.16c.85.767 1.274 1.714 1.274 2.839 0 1.002-.349 1.757-1.046 2.267-.644.48-1.523.721-2.637.721-.832 0-1.535-.173-2.109-.519-.047.036-.07.1-.07.194 0 .176.231.337.694.483a4.85 4.85 0 001.573.238c.592 0 1.128-.074 1.609-.22.486-.153.876-.331 1.169-.536.14.123.252.351.334.685.088.328.131.63.131.905 0 .27-.026.51-.079.721-.457.387-.925.662-1.406.826-.68.246-1.506.37-2.478.37zm-.115-5.95c.293 0 .44-.112.44-.335 0-.21-.156-.316-.466-.316-.31 0-.49.167-.536.5.164.1.351.15.562.15zm13.72 1.327c0 .421.047.761.14 1.019.094.258.258.46.493.606.006.03.009.085.009.167v.159c0 .832-.252 1.48-.756 1.942-.445.41-.996.615-1.653.615-.445 0-.852-.105-1.221-.316a1.778 1.778 0 01-.791-.914c-.2 0-.3.096-.3.29 0 .164.103.348.308.553-.38.258-.955.387-1.722.387-1.084 0-1.951-.293-2.602-.879-.644-.591-.966-1.415-.966-2.47 0-1.06.342-1.88 1.028-2.46.627-.522 1.438-.783 2.434-.783.34 0 .668.024.985.07.21.042.325.065.343.071a.538.538 0 00.026-.15c0-.152-.129-.254-.387-.307a5.224 5.224 0 00-1.01-.08c-.885 0-1.641.18-2.268.537-.287-.486-.43-1.102-.43-1.846 0-.422.052-.735.157-.94.422-.194.958-.363 1.609-.51a8.997 8.997 0 012.056-.228c1.489 0 2.614.325 3.375.975.762.65 1.143 1.573 1.143 2.769v1.722zm-4.562.43c-.246 0-.369.111-.369.334 0 .211.144.316.431.316.2 0 .346-.046.44-.14.093-.1.14-.27.14-.51h-.642zm19.802-.43c0 .427.047.776.141 1.045.094.27.258.478.492.624.006.03.009.08.009.15v.132c0 .802-.234 1.43-.703 1.88-.469.452-1.075.677-1.82.677-.738 0-1.333-.202-1.784-.606-.533-.469-.8-1.187-.8-2.154v-2.777c0-.392-.128-.589-.386-.589-.1 0-.179.024-.238.07l.159 1.31v1.986c0 .797.131 1.4.395 1.811a2.922 2.922 0 01-1.055.703c-.416.164-.84.246-1.274.246-.703 0-1.248-.17-1.635-.51-.469-.41-.703-1.057-.703-1.942v-3.085c0-.392-.129-.589-.387-.589a.37.37 0 00-.237.07l.158 1.31v2.33c0 .655.088 1.162.264 1.52-.574.591-1.38.887-2.417.887-.615 0-1.134-.155-1.556-.465a1.698 1.698 0 01-.73-1.442v-4.201c-.345-.486-.518-1.084-.518-1.793 0-.715.173-1.333.519-1.854h2.118c.416 0 .77.155 1.064.465-.258.24-.387.44-.387.598 0 .182.102.273.307.273.258-.446.613-.8 1.064-1.064.527-.299 1.145-.448 1.854-.448.54 0 1.011.114 1.415.343.411.228.715.492.914.79a2.543 2.543 0 011.073-.843 3.45 3.45 0 011.388-.29c1.061 0 1.884.328 2.47.984.574.656.861 1.556.861 2.698l-.035 1.75z" stroke="#fff" mask="url(#path-3-outside-1)"/><defs><filter id="filter0_d" x="0" y="0" width="125.763" height="46" filterUnits="userSpaceOnUse" color-interpolation-filters="sRGB"><feFlood flood-opacity="0" result="BackgroundImageFix"/><feColorMatrix in="SourceAlpha" values="0 0 0 0 0 0 0 0 0 0 0 0 0 0 0 0 0 0 127 0"/><feMorphology radius="1" operator="dilate" in="SourceAlpha" result="effect1_dropShadow"/><feOffset dy="3"/><feGaussianBlur stdDeviation="1.5"/><feColorMatrix values="0 0 0 0 0 0 0 0 0 0 0 0 0 0 0 0 0 0 0.25 0"/><feBlend in2="BackgroundImageFix" result="effect1_dropShadow"/><feBlend in="SourceGraphic" in2="effect1_dropShadow" result="shape"/></filter><filter id="filter1_i" x="20.781" y="13.925" width="86.641" height="12.848" filterUnits="userSpaceOnUse" color-interpolation-filters="sRGB"><feFlood flood-opacity="0" result="BackgroundImageFix"/><feBlend in="SourceGraphic" in2="BackgroundImageFix" result="shape"/><feColorMatrix in="SourceAlpha" values="0 0 0 0 0 0 0 0 0 0 0 0 0 0 0 0 0 0 127 0" result="hardAlpha"/><feOffset dy="-2"/><feComposite in2="hardAlpha" operator="arithmetic" k2="-1" k3="1"/><feColorMatrix values="0 0 0 0 0.995833 0 0 0 0 0.991684 0 0 0 0 0.991684 0 0 0 0.35 0"/><feBlend in2="shape" result="effect1_innerShadow"/></filter></defs></svg>