<svg xmlns="http://www.w3.org/2000/svg" width="18" height="20"><path fill-rule="evenodd" fill="#2967af" d="M17.818 19l-5.57-5.443 5.751-5.619v10.308a1.7 1.7 0 01-.181.754zM15.599 5.108l1.8 1.758-1.8 1.759V5.108zm-8.751 7.863L3.6 9.797V.638c0-.354.294-.641.656-.641h9.374a.76.76 0 01.769.751v9.049l-3.248 3.174H6.848zM9 3.592c1.654 0 2.999 1.315 2.999 2.931 0 .775-1.2.775-1.2 0 0-.97-.807-1.759-1.799-1.759-.993 0-1.8.789-1.8 1.759 0 .969.807 1.758 1.8 1.758.462 0 .88-.176 1.199-.457 1.166 1.029 3 .206 3-1.301C13.199 4.26 11.315 2.42 9 2.42c-2.316 0-4.2 1.84-4.2 4.103 0 1.405.725 2.697 1.939 3.457 1.274.797 2.801.841 4.176.222.723-.324.214-1.389-.501-1.064-1.035.464-2.137.411-3.028-.145A2.908 2.908 0 016 6.523c0-1.616 1.345-2.931 3-2.931zm0 3.517a.594.594 0 01-.6-.586c0-.324.269-.586.6-.586a.59.59 0 01.591.545c-.066.349-.176.627-.591.627zM2.4 5.108v3.517L.6 6.866l1.8-1.758zM.18 19a1.713 1.713 0 01-.18-.754V7.938l5.751 5.619L.18 19zm10.971-4.857l5.819 5.686a1.824 1.824 0 01-.771.176H1.8c-.277 0-.536-.067-.771-.176l5.819-5.686h4.303z"/></svg>