<svg xmlns="http://www.w3.org/2000/svg" width="20" height="20"><path fill-rule="evenodd" fill="#2967af" d="M19.477 17.249l-.415.414-4.969-4.973.414-.415c.664-.665 1.822-.663 2.485 0l2.485 2.487a1.76 1.76 0 010 2.487zm-9.864.904l-7.774-7.784C-.515 8.013-.598 4.263 1.535 1.775l4.958 4.962c-.405.522-.389 1.269.09 1.748l4.912 4.92c.478.48 1.224.496 1.747.09l4.958 4.963a6.284 6.284 0 01-8.587-.305zM7.298 5.885L2.329.912l.414-.415c.664-.665 1.822-.664 2.485 0l2.485 2.487a1.76 1.76 0 010 2.487l-.415.414z"/></svg>